<mxfile host="Electron" agent="Mozilla/5.0 (X11; Linux x86_64) AppleWebKit/537.36 (KHTML, like Gecko) draw.io/26.0.16 Chrome/132.0.6834.196 Electron/34.2.0 Safari/537.36" version="26.0.16">
  <diagram name="Page-1" id="SwcjrciffEa3kpsxSUFM">
    <mxGraphModel dx="1310" dy="795" grid="1" gridSize="10" guides="1" tooltips="1" connect="1" arrows="1" fold="1" page="1" pageScale="1" pageWidth="850" pageHeight="1100" math="0" shadow="0">
      <root>
        <mxCell id="0" />
        <mxCell id="1" parent="0" />
        <mxCell id="61CxAGmyJOgiY7a1NCY--8" style="edgeStyle=orthogonalEdgeStyle;rounded=0;orthogonalLoop=1;jettySize=auto;html=1;exitX=0.5;exitY=1;exitDx=0;exitDy=0;" edge="1" parent="1" source="61CxAGmyJOgiY7a1NCY--5" target="61CxAGmyJOgiY7a1NCY--7">
          <mxGeometry relative="1" as="geometry" />
        </mxCell>
        <mxCell id="61CxAGmyJOgiY7a1NCY--5" value="" style="shape=parallelogram;html=1;strokeWidth=2;perimeter=parallelogramPerimeter;whiteSpace=wrap;rounded=1;arcSize=12;size=0.23;" vertex="1" parent="1">
          <mxGeometry x="230" y="80" width="320" height="170" as="geometry" />
        </mxCell>
        <mxCell id="61CxAGmyJOgiY7a1NCY--1" value="MoveDto" style="swimlane;fontStyle=0;childLayout=stackLayout;horizontal=1;startSize=30;horizontalStack=0;resizeParent=1;resizeParentMax=0;resizeLast=0;collapsible=1;marginBottom=0;whiteSpace=wrap;html=1;" vertex="1" parent="1">
          <mxGeometry x="320" y="100" width="140" height="120" as="geometry" />
        </mxCell>
        <mxCell id="61CxAGmyJOgiY7a1NCY--2" value="string From" style="text;strokeColor=none;fillColor=none;align=left;verticalAlign=middle;spacingLeft=4;spacingRight=4;overflow=hidden;points=[[0,0.5],[1,0.5]];portConstraint=eastwest;rotatable=0;whiteSpace=wrap;html=1;" vertex="1" parent="61CxAGmyJOgiY7a1NCY--1">
          <mxGeometry y="30" width="140" height="30" as="geometry" />
        </mxCell>
        <mxCell id="61CxAGmyJOgiY7a1NCY--3" value="string To" style="text;strokeColor=none;fillColor=none;align=left;verticalAlign=middle;spacingLeft=4;spacingRight=4;overflow=hidden;points=[[0,0.5],[1,0.5]];portConstraint=eastwest;rotatable=0;whiteSpace=wrap;html=1;" vertex="1" parent="61CxAGmyJOgiY7a1NCY--1">
          <mxGeometry y="60" width="140" height="30" as="geometry" />
        </mxCell>
        <mxCell id="61CxAGmyJOgiY7a1NCY--4" value="string Promotion" style="text;strokeColor=none;fillColor=none;align=left;verticalAlign=middle;spacingLeft=4;spacingRight=4;overflow=hidden;points=[[0,0.5],[1,0.5]];portConstraint=eastwest;rotatable=0;whiteSpace=wrap;html=1;" vertex="1" parent="61CxAGmyJOgiY7a1NCY--1">
          <mxGeometry y="90" width="140" height="30" as="geometry" />
        </mxCell>
        <mxCell id="61CxAGmyJOgiY7a1NCY--14" style="edgeStyle=orthogonalEdgeStyle;rounded=0;orthogonalLoop=1;jettySize=auto;html=1;entryX=0.5;entryY=0;entryDx=0;entryDy=0;" edge="1" parent="1" source="61CxAGmyJOgiY7a1NCY--7" target="61CxAGmyJOgiY7a1NCY--13">
          <mxGeometry relative="1" as="geometry" />
        </mxCell>
        <mxCell id="61CxAGmyJOgiY7a1NCY--7" value="Is the player moving his own piece?" style="strokeWidth=2;html=1;shape=mxgraph.flowchart.decision;whiteSpace=wrap;" vertex="1" parent="1">
          <mxGeometry x="280" y="350" width="220" height="140" as="geometry" />
        </mxCell>
        <mxCell id="61CxAGmyJOgiY7a1NCY--9" value="" style="endArrow=none;dashed=1;html=1;rounded=0;" edge="1" parent="1">
          <mxGeometry width="50" height="50" relative="1" as="geometry">
            <mxPoint x="600" y="910" as="sourcePoint" />
            <mxPoint x="600" y="40" as="targetPoint" />
          </mxGeometry>
        </mxCell>
        <mxCell id="61CxAGmyJOgiY7a1NCY--10" value="&lt;font style=&quot;font-size: 36px;&quot;&gt;End&lt;/font&gt;" style="text;html=1;align=center;verticalAlign=middle;resizable=0;points=[];autosize=1;strokeColor=none;fillColor=none;" vertex="1" parent="1">
          <mxGeometry x="690" y="390" width="90" height="60" as="geometry" />
        </mxCell>
        <mxCell id="61CxAGmyJOgiY7a1NCY--11" style="edgeStyle=orthogonalEdgeStyle;rounded=0;orthogonalLoop=1;jettySize=auto;html=1;exitX=1;exitY=0.5;exitDx=0;exitDy=0;exitPerimeter=0;entryX=0.048;entryY=0.704;entryDx=0;entryDy=0;entryPerimeter=0;" edge="1" parent="1" source="61CxAGmyJOgiY7a1NCY--7" target="61CxAGmyJOgiY7a1NCY--10">
          <mxGeometry relative="1" as="geometry">
            <Array as="points">
              <mxPoint x="595" y="425" />
              <mxPoint x="595" y="432" />
            </Array>
          </mxGeometry>
        </mxCell>
        <mxCell id="61CxAGmyJOgiY7a1NCY--12" value="no" style="text;html=1;align=center;verticalAlign=middle;resizable=0;points=[];autosize=1;strokeColor=none;fillColor=none;" vertex="1" parent="1">
          <mxGeometry x="510" y="390" width="40" height="30" as="geometry" />
        </mxCell>
        <mxCell id="61CxAGmyJOgiY7a1NCY--13" value="generate moves for the from piece untill we generate one with the same To position" style="rounded=0;whiteSpace=wrap;html=1;" vertex="1" parent="1">
          <mxGeometry x="310" y="580" width="160" height="90" as="geometry" />
        </mxCell>
        <mxCell id="61CxAGmyJOgiY7a1NCY--15" value="yes" style="text;html=1;align=center;verticalAlign=middle;resizable=0;points=[];autosize=1;strokeColor=none;fillColor=none;" vertex="1" parent="1">
          <mxGeometry x="410" y="520" width="40" height="30" as="geometry" />
        </mxCell>
        <mxCell id="61CxAGmyJOgiY7a1NCY--18" style="edgeStyle=orthogonalEdgeStyle;rounded=0;orthogonalLoop=1;jettySize=auto;html=1;" edge="1" parent="1" source="61CxAGmyJOgiY7a1NCY--16" target="61CxAGmyJOgiY7a1NCY--10">
          <mxGeometry relative="1" as="geometry" />
        </mxCell>
        <mxCell id="61CxAGmyJOgiY7a1NCY--20" style="edgeStyle=orthogonalEdgeStyle;rounded=0;orthogonalLoop=1;jettySize=auto;html=1;entryX=0.5;entryY=0;entryDx=0;entryDy=0;" edge="1" parent="1" source="61CxAGmyJOgiY7a1NCY--16" target="61CxAGmyJOgiY7a1NCY--22">
          <mxGeometry relative="1" as="geometry">
            <mxPoint x="390" y="950" as="targetPoint" />
          </mxGeometry>
        </mxCell>
        <mxCell id="61CxAGmyJOgiY7a1NCY--16" value="did any move match the to and from positions for the piece?" style="strokeWidth=2;html=1;shape=mxgraph.flowchart.decision;whiteSpace=wrap;" vertex="1" parent="1">
          <mxGeometry x="270" y="740" width="240" height="130" as="geometry" />
        </mxCell>
        <mxCell id="61CxAGmyJOgiY7a1NCY--17" style="edgeStyle=orthogonalEdgeStyle;rounded=0;orthogonalLoop=1;jettySize=auto;html=1;exitX=0.5;exitY=1;exitDx=0;exitDy=0;entryX=0.5;entryY=0;entryDx=0;entryDy=0;entryPerimeter=0;" edge="1" parent="1" source="61CxAGmyJOgiY7a1NCY--13" target="61CxAGmyJOgiY7a1NCY--16">
          <mxGeometry relative="1" as="geometry" />
        </mxCell>
        <mxCell id="61CxAGmyJOgiY7a1NCY--19" value="no" style="text;html=1;align=center;verticalAlign=middle;resizable=0;points=[];autosize=1;strokeColor=none;fillColor=none;" vertex="1" parent="1">
          <mxGeometry x="520" y="798" width="40" height="30" as="geometry" />
        </mxCell>
        <mxCell id="61CxAGmyJOgiY7a1NCY--21" value="yes" style="text;html=1;align=center;verticalAlign=middle;resizable=0;points=[];autosize=1;strokeColor=none;fillColor=none;" vertex="1" parent="1">
          <mxGeometry x="400" y="890" width="40" height="30" as="geometry" />
        </mxCell>
        <mxCell id="61CxAGmyJOgiY7a1NCY--24" style="edgeStyle=orthogonalEdgeStyle;rounded=0;orthogonalLoop=1;jettySize=auto;html=1;exitX=0.5;exitY=1;exitDx=0;exitDy=0;" edge="1" parent="1" source="61CxAGmyJOgiY7a1NCY--22" target="61CxAGmyJOgiY7a1NCY--23">
          <mxGeometry relative="1" as="geometry" />
        </mxCell>
        <mxCell id="61CxAGmyJOgiY7a1NCY--22" value="apply move on the board" style="rounded=0;whiteSpace=wrap;html=1;" vertex="1" parent="1">
          <mxGeometry x="330" y="930" width="120" height="60" as="geometry" />
        </mxCell>
        <mxCell id="61CxAGmyJOgiY7a1NCY--23" value="&lt;font style=&quot;font-size: 36px;&quot;&gt;Success&lt;/font&gt;" style="text;html=1;align=center;verticalAlign=middle;resizable=0;points=[];autosize=1;strokeColor=none;fillColor=none;" vertex="1" parent="1">
          <mxGeometry x="310" y="1033" width="160" height="60" as="geometry" />
        </mxCell>
      </root>
    </mxGraphModel>
  </diagram>
</mxfile>
